Patient5_TMGait_0pt45_1_right_05_GRF.mot
version=1
nRows=78
nColumns=19
inDegrees=no
endheader
time	F1x	F1y	F1z	M1x	M1y	M1z	F2x	F2y	F2z	M2x	M2y	M2z	EC1x	EC1y	EC1z	EC2x	EC2y	EC2z
7.93	14.2954	853.2951	37.0337	-299.5388	-26.3091	778.1661	0.00094152	-4.6283	-1.3344	-0.55614	-0.31467	-8.2208	-0.0592	0.0182	-0.0073	-0.0462	0.0165	0.9585
7.9467	13.2644	859.8243	34.2075	-301.2691	-24.5177	779.8546	-0.0085871	-2.2571	-0.84372	-0.087129	-0.14391	-4.2389	-0.0592	0.0182	-0.0073	-0.0462	0.0165	0.9585
7.9634	12.789	865.6749	31.828	-302.816	-22.9325	780.6005	-0.03498	-0.40755	-0.41301	0.26594	-0.045445	-1.1701	-0.0592	0.0182	-0.0073	-0.0462	0.0165	0.9585
7.9801	13.0539	869.7106	30.241	-303.7447	-21.7597	779.5831	-0.060705	0.82445	-0.10177	0.49591	-0.0022052	0.84103	-0.0592	0.0182	-0.0073	-0.0462	0.0165	0.9585
7.9969	14.0686	871.2391	29.5456	-303.7598	-21.0536	776.2708	-0.073201	1.5436	0.085314	0.63099	0.017284	1.9874	-0.0592	0.0182	-0.0073	-0.0462	0.0165	0.9585
8.0136	15.7222	870.1866	29.6473	-302.8194	-20.7608	770.6184	-0.060094	1.8953	0.17866	0.70068	0.02534	2.5178	-0.0592	0.0182	-0.0073	-0.0462	0.0165	0.9585
8.0303	17.8548	866.9713	30.3259	-301.0998	-20.7488	763.0044	-0.027707	2.0216	0.22278	0.73182	0.014242	2.6736	-0.0592	0.0182	-0.0073	-0.0462	0.0165	0.9585
8.047	20.3242	862.3081	31.3149	-298.9066	-20.8429	754.0464	0.01076	2.0396	0.23675	0.74738	-0.0066108	2.6535	-0.0592	0.0182	-0.0073	-0.0462	0.0165	0.9585
8.0637	23.0504	856.9803	32.3922	-296.5676	-20.8877	744.4169	0.045319	2.0416	0.23749	0.76532	-0.032361	2.6025	-0.0592	0.0182	-0.0073	-0.0462	0.0165	0.9585
8.0804	26.0238	851.5231	33.4565	-294.3073	-20.8005	734.5673	0.069437	2.056	0.23379	0.78738	-0.060393	2.5557	-0.0592	0.0182	-0.0073	-0.0462	0.0165	0.9585
8.0971	29.2571	846.1643	34.5218	-292.2176	-20.5903	724.6958	0.076426	2.0258	0.21867	0.78994	-0.074348	2.4648	-0.0592	0.0182	-0.0073	-0.0462	0.0165	0.9585
8.1139	32.7722	840.9347	35.686	-290.2978	-20.3363	714.8362	0.063108	1.8254	0.20061	0.72121	-0.073904	2.1996	-0.0592	0.0182	-0.0073	-0.0462	0.0165	0.9585
8.1306	36.5894	835.8175	37.0601	-288.5213	-20.1287	704.9948	0.031163	1.2957	0.18204	0.50927	-0.062061	1.5784	-0.0592	0.0182	-0.0073	-0.0462	0.0165	0.9585
8.1473	40.7433	830.8723	38.6923	-286.8803	-20.0006	695.2271	-0.0019809	0.24782	0.16525	0.071472	-0.05119	0.40097	-0.0592	0.0182	-0.0073	-0.0462	0.0165	0.9585
8.164	45.2711	826.2646	40.5543	-285.4024	-19.9267	685.6601	-0.0022814	-1.4866	0.16003	-0.66429	-0.066759	-1.5142	-0.0592	0.0182	-0.0073	-0.0462	0.0165	0.9585
8.1807	50.2263	822.2109	42.5494	-284.1368	-19.8162	676.4551	0.07248	-3.9636	0.16697	-1.7194	-0.12824	-4.2425	-0.0592	0.0182	-0.0073	-0.0462	0.0165	0.9585
8.1974	55.69	818.9048	44.5847	-283.1324	-19.5663	667.7564	0.26617	-6.9358	0.18179	-2.9837	-0.25023	-7.5222	-0.0592	0.0182	-0.0073	-0.0462	0.0165	0.9585
8.2141	61.7279	816.4763	46.622	-282.4248	-19.1155	659.6812	0.62315	-9.5653	0.19649	-4.1004	-0.43865	-10.4387	-0.0592	0.0182	-0.0073	-0.0462	0.0165	0.9585
8.2309	68.3772	814.9607	48.6692	-282.0393	-18.4473	652.274	1.1639	-10.1436	0.17809	-4.3419	-0.66029	-11.1406	-0.0592	0.0182	-0.0073	-0.0462	0.0165	0.9585
8.2476	75.612	814.3618	50.7141	-282.0189	-17.5587	645.5823	1.8447	-5.8577	0.081314	-2.5061	-0.84201	-6.6287	-0.0592	0.0182	-0.0073	-0.0462	0.0165	0.9585
8.2643	83.3036	814.7133	52.6422	-282.4484	-16.4053	639.7487	2.4989	7.2309	-0.15097	3.0907	-0.84353	7.3126	-0.0592	0.0182	-0.0073	-0.0462	0.0165	0.9585
8.281	91.1572	816.0174	54.2013	-283.4264	-14.9035	634.9668	2.7649	33.6648	-0.57505	14.3884	-0.43375	35.5761	-0.0592	0.0182	-0.0073	-0.0462	0.0165	0.9585
8.2977	98.6749	817.9247	55.0306	-284.9331	-12.9651	631.2289	2.0313	77.1749	-1.2158	32.9749	0.69999	82.2242	-0.0592	0.0182	-0.0073	-0.0462	0.0165	0.9585
8.3144	105.1722	819.05	54.6995	-286.5355	-10.5112	627.7325	-0.58715	137.8795	-2.0277	58.8861	2.9058	147.472	-0.0592	0.0182	-0.0073	-0.0462	0.0165	0.9585
8.3311	109.8776	816.0583	52.7668	-286.9992	-7.4672	622.0754	-6.1053	208.489	-2.803	89.001	6.3471	223.6227	-0.0592	0.0182	-0.0073	-0.0462	0.0165	0.9585
8.3479	112.182	803.1793	48.7639	-284.0348	-3.6253	609.6793	-14.5252	275.4359	-3.589	117.4771	10.979	296.2214	-0.0592	0.0182	-0.0073	-0.0462	0.0165	0.9585
8.3646	112.0199	773.0177	42.4261	-274.5592	1.3483	584.2897	-24.5503	327.3102	-6.5881	139.2396	18.4358	353.0059	-0.0592	0.0182	-0.0073	-0.0462	0.0165	0.9585
8.3813	109.7307	721.2767	34.18	-256.7261	7.3949	542.2771	-34.6245	363.0529	-13.0574	153.6957	29.3684	392.5763	-0.0592	0.0182	-0.0073	-0.0462	0.0165	0.9585
8.398	105.292	649.8105	25.3907	-231.2521	13.4432	485.4726	-44.0028	389.6778	-21.4927	163.9284	42.0017	422.1139	-0.0592	0.0182	-0.0073	-0.0462	0.0165	0.9585
8.4147	98.2545	564.4943	17.5973	-200.4989	18.0013	419.0594	-52.2022	414.0552	-29.3072	173.1327	53.5285	448.6274	-0.0592	0.0182	-0.0073	-0.0462	0.0165	0.9585
8.4314	88.1664	472.4939	11.634	-167.3259	20.0442	348.9589	-58.519	441.7137	-34.7387	183.9203	61.8401	477.5944	-0.0592	0.0182	-0.0073	-0.0462	0.0165	0.9585
8.4481	75.163	380.6838	7.4968	-134.4106	19.4433	280.4031	-62.2385	477.0423	-37.5997	198.2972	66.3962	513.2621	-0.0592	0.0182	-0.0073	-0.0462	0.0165	0.9585
8.4649	60.1554	295.0483	4.8145	-103.9994	16.7396	217.5566	-63.2401	522.0601	-38.8383	217.1448	68.0466	557.5121	-0.0592	0.0182	-0.0073	-0.0462	0.0165	0.9585
8.4816	44.5597	220.2322	3.2602	-77.7602	12.7122	163.4096	-62.0723	576.1416	-39.3747	240.1662	67.9277	609.6564	-0.0592	0.0182	-0.0073	-0.0462	0.0165	0.9585
8.4983	29.8892	159.0718	2.5503	-56.6433	8.2015	119.6209	-59.5882	637.0575	-39.5658	266.359	66.7871	667.49	-0.0592	0.0182	-0.0073	-0.0462	0.0165	0.9585
8.515	17.3743	112.2694	2.3995	-40.7803	3.9546	86.3693	-56.47	701.3509	-39.7019	294.1618	65.2351	727.607	-0.0592	0.0182	-0.0073	-0.0462	0.0165	0.9585
8.5317	7.7865	78.4472	2.5027	-29.543	0.53277	62.4162	-53.1365	764.1044	-40.1818	321.3661	63.8635	785.193	-0.0592	0.0182	-0.0073	-0.0462	0.0165	0.9585
8.5484	1.3632	55.0145	2.5483	-21.89	-1.717	45.7287	-49.8148	819.5712	-41.0202	345.4279	62.8045	834.682	-0.0592	0.0182	-0.0073	-0.0462	0.0165	0.9585
8.5651	-2.0959	39.2721	2.3476	-16.7729	-2.7157	34.3103	-46.5809	862.6908	-41.9628	364.1237	61.8577	871.2874	-0.0592	0.0182	-0.0073	-0.0462	0.0165	0.9585
8.5819	-3.0929	28.908	1.8434	-13.3182	-2.599	26.5034	-43.4262	890.2005	-42.8936	376.0066	60.9059	892.0971	-0.0592	0.0182	-0.0073	-0.0462	0.0165	0.9585
8.5986	-2.5042	22.0904	1.0902	-10.8587	-1.7101	21.0031	-40.2696	901.1204	-43.7863	380.6239	59.8799	896.4539	-0.0592	0.0182	-0.0073	-0.0462	0.0165	0.9585
8.6153	-1.1343	17.2663	0.26439	-8.8704	-0.47243	16.7516	-37.0148	896.984	-44.6179	378.632	58.7185	886.1291	-0.0592	0.0182	-0.0073	-0.0462	0.0165	0.9585
8.632	0.45619	13.3603	-0.4666	-7.0408	0.77105	13.0766	-33.512	881.677	-45.3211	371.7306	57.2969	865.0884	-0.0592	0.0182	-0.0073	-0.0462	0.0165	0.9585
8.6487	1.82	9.8593	-1.0039	-5.2749	1.7598	9.6946	-29.5489	860.5318	-45.7848	362.257	55.4214	838.5998	-0.0592	0.0182	-0.0073	-0.0462	0.0165	0.9585
8.6654	2.6902	6.6484	-1.2754	-3.6086	2.3177	6.5846	-24.9631	838.8104	-45.992	352.5149	53.0115	811.7595	-0.0592	0.0182	-0.0073	-0.0462	0.0165	0.9585
8.6821	3.0132	3.8014	-1.2699	-2.1224	2.4149	3.8773	-19.7683	820.5328	-46.0082	344.259	50.1635	788.3881	-0.0592	0.0182	-0.0073	-0.0462	0.0165	0.9585
8.6989	2.8745	1.4115	-1.0565	-0.88007	2.148	1.6823	-14.2285	808.1026	-45.9219	338.5265	47.1193	770.7222	-0.0592	0.0182	-0.0073	-0.0462	0.0165	0.9585
8.7156	2.4242	-0.50774	-0.70299	0.10581	1.6263	-0.032668	-8.7767	802.3452	-45.8138	335.6706	44.1755	759.4935	-0.0592	0.0182	-0.0073	-0.0462	0.0165	0.9585
8.7323	1.8299	-2.0561	-0.27212	0.87536	0.95789	-1.4289	-3.7968	802.8313	-45.673	335.5115	41.5143	754.2267	-0.0592	0.0182	-0.0073	-0.0462	0.0165	0.9585
8.749	1.2212	-3.4212	0.19525	1.5114	0.22253	-2.7182	0.57802	808.3048	-45.4072	337.5194	39.113	753.6661	-0.0592	0.0182	-0.0073	-0.0462	0.0165	0.9585
8.7657	0.6533	-4.8644	0.69728	2.1317	-0.55624	-4.1549	4.5089	817.0463	-44.9808	340.9594	36.8512	756.1289	-0.0592	0.0182	-0.0073	-0.0462	0.0165	0.9585
8.7824	0.13982	-6.6419	1.2297	2.8544	-1.3602	-6.0075	8.3594	827.2637	-44.4957	345.0524	34.6336	759.8625	-0.0592	0.0182	-0.0073	-0.0462	0.0165	0.9585
8.7991	-0.33758	-8.8619	1.7579	3.7381	-2.1426	-8.3975	12.5119	837.5513	-44.0917	349.1777	32.3936	763.4837	-0.0592	0.0182	-0.0073	-0.0462	0.0165	0.9585
8.8159	-0.81768	-11.3056	2.1774	4.7048	-2.7855	-11.0602	17.1529	847.1416	-43.8313	352.9852	30.0926	766.2616	-0.0592	0.0182	-0.0073	-0.0462	0.0165	0.9585
8.8326	-1.291	-13.2103	2.2395	5.4524	-3.0023	-13.1571	22.154	855.7568	-43.6751	356.338	27.7476	768.0177	-0.0592	0.0182	-0.0073	-0.0462	0.0165	0.9585
8.8493	-1.6398	-13.0697	1.5345	5.3794	-2.2839	-13.0448	27.0661	863.2021	-43.504	359.1378	25.4461	768.7702	-0.0592	0.0182	-0.0073	-0.0462	0.0165	0.9585
8.866	-1.6196	-8.5022	-0.48897	3.5323	0.10012	-8.083	31.2535	868.9728	-43.2113	361.1526	23.3686	768.3284	-0.0592	0.0182	-0.0073	-0.0462	0.0165	0.9585
8.8827	-0.83872	3.654	-4.4512	-1.3501	5.0194	5.2559	34.0879	871.9558	-42.8049	361.8924	21.7766	765.975	-0.0592	0.0182	-0.0073	-0.0462	0.0165	0.9585
8.8994	1.2225	26.7879	-10.7885	-10.605	13.1953	30.7928	35.1578	870.36	-42.3493	360.5944	20.8759	760.3527	-0.0592	0.0182	-0.0073	-0.0462	0.0165	0.9585
8.9161	4.9643	63.32	-19.3141	-25.1581	24.5976	71.2959	34.3913	862.0286	-41.8804	356.3671	20.7129	749.7203	-0.0592	0.0182	-0.0073	-0.0462	0.0165	0.9585
8.9329	9.4833	113.1166	-28.6786	-44.8684	37.3594	126.7071	32.0677	845.0108	-41.2996	348.4369	21.0906	732.3974	-0.0592	0.0182	-0.0073	-0.0462	0.0165	0.9585
8.9496	11.412	171.655	-35.6603	-67.7883	46.5651	192.1848	28.7323	817.9516	-40.3828	336.3159	21.6062	707.1093	-0.0592	0.0182	-0.0073	-0.0462	0.0165	0.9585
8.9663	8.2402	231.218	-36.7098	-90.7403	47.2401	259.4512	25.0171	780.2698	-38.8827	319.8605	21.8144	673.1979	-0.0592	0.0182	-0.0073	-0.0462	0.0165	0.9585
8.983	1.3286	284.8447	-31.0225	-111.0152	38.8925	320.7267	21.4615	732.3237	-36.5998	299.3131	21.3602	630.8037	-0.0592	0.0182	-0.0073	-0.0462	0.0165	0.9585
8.9997	-6.8297	329.2441	-20.6887	-127.5025	24.835	371.8537	18.3827	675.4417	-33.4461	275.2985	20.0642	580.9328	-0.0592	0.0182	-0.0073	-0.0462	0.0165	0.9585
9.0164	-14.5568	366.6472	-8.96	-141.2982	9.3485	414.8558	15.859	611.7689	-29.413	248.7427	17.901	525.3692	-0.0592	0.0182	-0.0073	-0.0462	0.0165	0.9585
9.0331	-21.2432	401.9697	1.0009	-154.5184	-3.8205	455.1276	13.7016	543.9204	-24.6247	220.7248	15.044	466.3971	-0.0592	0.0182	-0.0073	-0.0462	0.0165	0.9585
9.0499	-26.7755	438.7343	7.4316	-168.6592	-12.6434	496.5546	11.5816	474.7601	-19.2973	192.3974	11.7754	406.5586	-0.0592	0.0182	-0.0073	-0.0462	0.0165	0.9585
9.0666	-31.0485	478.0697	10.5556	-184.1321	-17.3017	540.2147	9.1806	407.1764	-13.7434	164.8963	8.4389	348.4099	-0.0592	0.0182	-0.0073	-0.0462	0.0165	0.9585
9.0833	-34.0981	519.7097	11.921	-200.6694	-19.5023	585.6623	6.3561	343.7279	-8.4359	139.1997	5.433	294.1395	-0.0592	0.0182	-0.0073	-0.0462	0.0165	0.9585
9.1	-36.3492	562.7016	13.3916	-217.692	-21.4501	631.8405	3.216	286.2935	-3.9486	115.9973	3.1402	245.2674	-0.0592	0.0182	-0.0073	-0.0462	0.0165	0.9585
9.1167	-38.2042	606.1309	16.0553	-234.7065	-24.514	677.7393	-0.0079243	235.9429	-0.76704	95.6628	1.8436	202.5777	-0.0592	0.0182	-0.0073	-0.0462	0.0165	0.9585
9.1334	-39.8673	649.4742	19.8967	-251.4863	-28.7703	722.7634	-3.15	193.0081	0.88529	78.2938	1.6687	166.2255	-0.0592	0.0182	-0.0073	-0.0462	0.0165	0.9585
9.1501	-41.3863	692.0742	24.1629	-267.8357	-33.4191	766.2205	-6.1924	157.2369	1.1071	63.777	2.5519	135.9061	-0.0592	0.0182	-0.0073	-0.0462	0.0165	0.9585
9.1669	-42.7188	732.5199	27.9451	-283.2928	-37.4766	806.6716	-9.1455	127.9734	0.27683	51.8599	4.226	110.9981	-0.0592	0.0182	-0.0073	-0.0462	0.0165	0.9585
9.1836	-43.7624	768.7987	30.6417	-297.1364	-40.2901	842.0986	-11.9747	104.3831	-1.1335	42.2321	6.3341	90.7567	-0.0592	0.0182	-0.0073	-0.0462	0.0165	0.9585
9.2003	-44.3358	799.0102	32.1674	-308.6376	-41.7306	870.6083	-14.6536	85.629	-2.7238	34.5772	8.5672	74.4978	-0.0592	0.0182	-0.0073	-0.0462	0.0165	0.9585
9.217	-44.2552	821.9889	32.875	-317.2918	-42.1163	891.0855	-17.1951	70.9082	-4.2518	28.5779	10.7377	61.6142	-0.0592	0.0182	-0.0073	-0.0462	0.0165	0.9585
